<?xml version="1.0" encoding="utf-8"?>
<!-- Generator: Adobe Illustrator 21.0.0, SVG Export Plug-In . SVG Version: 6.00 Build 0)  -->
<svg version="1.1" id="Layer_1" xmlns="http://www.w3.org/2000/svg" xmlns:xlink="http://www.w3.org/1999/xlink" x="0px" y="0px"
	 viewBox="0 0 150 150" style="enable-background:new 0 0 150 150;" xml:space="preserve">
<style type="text/css">
	.st0{fill:none;}
	.st1{fill:#2E2829;}
	.st2{fill:#FFE45D;}
</style>
<rect class="st0" width="150" height="150"/>
<title>logo-chico</title>
<g>
	<polygon class="st1" points="20.3,42.8 75.3,11.7 129.7,42.8 129.7,106.5 75.3,138.3 20.3,106.2 	"/>
	<polygon class="st2" points="22.9,44.4 75.3,14.7 127.1,44.4 127.1,105 75.3,135.3 22.9,104.7 	"/>
	<path class="st1" d="M58.6,84.7c0-3.6-1.5-6.1-4.7-6.8v-5.8c3.1-0.8,4.7-3.3,4.7-6.8c0-4.2-0.9-9-0.9-14c0-6.2,5.5-9.6,15.3-7.2
		L71.5,50c-5.1-1.9-6.1,0.9-6.1,2.4c0,4.2,0.9,8.3,0.9,11.9c0,4.1-0.7,7.8-5.5,10.7c4.8,3,5.5,6.7,5.5,10.7c0,3.6-0.9,7.8-0.9,11.9
		c0,1.6,1,4.3,6.1,2.4L73,106c-9.8,2.6-15.3-1.2-15.3-7.2C57.7,93.7,58.6,88.9,58.6,84.7z"/>
	<path class="st1" d="M77,105.9l1.5-5.9c5.1,1.9,6.1-0.9,6.1-2.4c0-4.2-0.9-8.3-0.9-11.9c0-4,0.7-7.8,5.5-10.7
		c-4.7-2.9-5.5-6.7-5.5-10.7c0-3.6,0.9-7.8,0.9-11.9c0-1.6-1-4.3-6.1-2.4L77,44c9.8-2.4,15.3,1,15.3,7.2c0,5-0.9,9.8-0.9,14
		c0,3.6,1.5,6.1,4.7,6.8v5.7c-3.1,0.8-4.7,3.3-4.7,6.8c0,4.2,0.9,9,0.9,14C92.3,104.7,86.8,108.5,77,105.9z"/>
</g>
</svg>
