<svg id="Layer_1" data-name="Layer 1" xmlns="http://www.w3.org/2000/svg" viewBox="0 0 16 16"><defs><style>.cls-1{fill:#ffe45d;}.cls-2{fill:#2e2829;}</style></defs><title>favicon</title><polygon class="cls-1" points="1.41 4.13 8.04 0.38 14.59 4.13 14.59 11.79 8.04 15.62 1.41 11.76 1.41 4.13"/><path class="cls-2" d="M6.06,9.15a.74.74,0,0,0-.56-.81V7.66a.74.74,0,0,0,.56-.81c0-.49-.11-1.07-.11-1.66S6.6,4,7.76,4.32L7.58,5c-.6-.22-.72.1-.72.29,0,.49.1,1,.1,1.41A1.31,1.31,0,0,1,6.3,8,1.3,1.3,0,0,1,7,9.27c0,.43-.1.92-.1,1.41,0,.19.12.51.72.29l.18.7c-1.16.3-1.82-.14-1.82-.86S6.06,9.65,6.06,9.15Z"/><path class="cls-2" d="M8.24,11.67l.18-.7c.6.22.72-.1.72-.29,0-.49-.1-1-.1-1.41A1.31,1.31,0,0,1,9.69,8,1.32,1.32,0,0,1,9,6.73c0-.43.1-.92.1-1.41,0-.19-.12-.51-.72-.29l-.18-.7c1.16-.28,1.82.12,1.82.86s-.11,1.17-.11,1.66a.74.74,0,0,0,.56.81v.68a.74.74,0,0,0-.56.81c0,.49.11,1.07.11,1.66S9.4,12,8.24,11.67Z"/></svg>