<!DOCTYPE svg>
<svg xmlns="http://www.w3.org/2000/svg" height="150" width="150" preserveaspectratio="none">
  <path style="fill: #2e2829;" d="M11,37.39,75.37,1,139,37.39V111.8L75.37,149,11,111.47Z" />
  <path style="fill: #ffe45d;" d="M14,39.18,75.35,4.52,136,39.18V110L75.35,145.48,14,109.73Z" />
  <path
    style="fill: #2e2829;"
    d="M55.85,86.36c0-4.21-1.8-7.13-5.47-8V71.62c3.67-.89,5.47-3.81,5.47-8,0-4.86-1.09-10.53-1.09-16.36,0-7.21,6.41-11.26,17.9-8.42l-1.8,6.89c-5.94-2.19-7.11,1-7.11,2.84,0,4.86,1,9.72,1,13.93,0,4.78-.86,9.07-6.49,12.56,5.63,3.48,6.49,7.78,6.49,12.48,0,4.21-1,9.07-1,13.93,0,1.86,1.17,5,7.11,2.84l1.8,6.89c-11.41,3-17.9-1.38-17.9-8.42C54.76,96.89,55.85,91.22,55.85,86.36Zm21.5,24.79,1.8-6.89c5.94,2.19,7.11-1,7.11-2.84,0-4.86-1-9.72-1-13.93,0-4.62.86-9.07,6.41-12.48-5.55-3.4-6.41-7.86-6.41-12.56,0-4.21,1-9.07,1-13.93,0-1.86-1.17-5-7.11-2.84l-1.8-6.89C88.76,36,95.25,40,95.25,47.21c0,5.83-1.09,11.5-1.09,16.36,0,4.21,1.8,7.13,5.47,8v6.72c-3.67.89-5.47,3.81-5.47,8,0,4.86,1.09,10.53,1.09,16.36C95.24,109.77,88.75,114.15,77.35,111.15Z"
  />
</svg>
