<!DOCTYPE svg>
<svg xmlns="http://www.w3.org/2000/svg" height="46" width="46" preserveaspectratio="none">
  <path
    d="M26.9,27.3c-0.2-0.8,0.4-2,0.8-3.1c0.4-1.1,1.8-3.4,1.5-4.9c-0.3-1.5-1.3-1.5-2.3-1.5s-1,0.4-1.3,0.4
	c-0.2,0-0.4-0.2-0.6-0.4c-0.3-0.3-0.7-0.5-1.1-0.6c-0.4-0.1-0.8,0.1-1.1,0.4c-0.3,0.4-0.7,0.7-1.2,0.8c-0.6,0.1-0.9-0.3-1.5-0.6
	c-0.6-0.3-1.4-0.3-2,0c-0.7,0.3-1.2,0.9-1.4,1.6c0,0-1.4,4.1-1.9,5.6c-0.3,0.9-1.1,3.1,0.8,3.8c2.5,1,3.1-1.8,3.4-2.6
	c0.3-0.8,1.3-3.3,1.5-3.9c0.1-0.4,0.3-1.5,1.1-1.3s0.4,1.1,0.4,1.1l-1.5,4c0,0-0.5,1.2,0.7,1.5c1.3,0.3,1.7-1.3,2-1.9
	c0.4-0.8,2.4-5.6,3.3-5.2c0.6,0.3,0.2,1,0,1.3c-0.5,0.9-0.9,1.8-1.3,2.8c-0.4,1-1.1,1.8-0.7,3c0.5,1.7,2.4,2,3,2
	c0.6,0,1.9,0.2,2-0.8l0,0C29.6,27.6,27.2,28.1,26.9,27.3z"
  />
  <path
    d="M23,1.5C11.2,1.5,1.5,11.2,1.5,23c0,11.8,9.6,21.4,21.5,21.4S44.5,34.8,44.5,23C44.5,11.2,34.8,1.5,23,1.5z M24.8,8.8
	c0.7,0,1.3,0.6,1.3,1.3c0,0.7-0.6,1.3-1.3,1.3s-1.3-0.6-1.3-1.3C23.5,9.4,24.1,8.8,24.8,8.8z M16.4,8c0.4,0,0.7,0.3,0.7,0.7
	s-0.3,0.7-0.7,0.7S15.7,9,15.7,8.7S16,8,16.4,8z M13.6,12.8c0.5,0,1,0.4,1,1s-0.4,1-1,1s-1-0.4-1-1S13,12.8,13.6,12.8z M8.5,23.6
	c-0.7,0-1.3-0.6-1.3-1.3S7.8,21,8.5,21s1.3,0.6,1.3,1.3S9.3,23.6,8.5,23.6z M12.6,33.1c-0.3,0-0.6-0.3-0.6-0.6s0.3-0.6,0.6-0.6
	s0.6,0.3,0.6,0.6S13,33.1,12.6,33.1z M22.2,38c-0.4,0-0.8-0.4-0.8-0.8c0-0.4,0.4-0.8,0.8-0.8s0.8,0.4,0.8,0.8
	C23,37.6,22.6,38,22.2,38z M30.6,36.5c-0.8,0-1.4-0.6-1.4-1.4s0.6-1.4,1.4-1.4c0.8,0,1.4,0.6,1.4,1.4S31.3,36.5,30.6,36.5z
	 M33.6,30.3c-1.1,1.7-3,2.8-5.1,2.6c-0.3,1.2-1.2,2.2-2.4,2.6c-2.6,0.9-3.9-0.7-3.9-0.7c-1.7,1.3-4,1.4-5.9,0.3
	c-3.1-2-2.3-4.2-2.3-4.2c-1.8-0.3-3.3-1.6-3.8-3.4c-0.6-1.7-0.1-3.6,1.2-4.8c-0.7-1.3-0.8-2.9-0.1-4.3c0.6-1.4,1.8-2.3,3.3-2.4
	c0.7-1.9,2.3-3.4,4.2-4c1.9-0.6,3.9-0.3,5.6,0.8c2.1-0.7,4.4-0.3,6,1.2c2.6,2.5,1.8,4.7,1.8,4.7c1.2,0.4,2.2,1.4,2.4,2.7
	c0.2,1.1-0.3,2.2-1.2,2.9C34.7,26.1,34.7,28.4,33.6,30.3z M34.5,18.1c-0.6,0-1.1-0.5-1.1-1.1c0-0.6,0.5-1.1,1.1-1.1
	c0.6,0,1.1,0.5,1.1,1.1C35.6,17.6,35.1,18.1,34.5,18.1z M36.5,25.5c-0.5,0-0.8-0.4-0.8-0.8c0-0.5,0.4-0.8,0.8-0.8s0.8,0.4,0.8,0.8
	C37.3,25.2,36.9,25.5,36.5,25.5z M38.2,21.3c-0.3,0-0.6-0.3-0.6-0.6s0.3-0.6,0.6-0.6s0.6,0.3,0.6,0.6S38.5,21.3,38.2,21.3z"
  />
</svg>
