<!DOCTYPE svg>
<svg
  xmlns="http://www.w3.org/2000/svg"
  height="64"
  width="64"
  preserveaspectratio="none"
  aria-labelledby="title"
  aria-describedby="desc"
  role="img"
  xmlns:xlink="http://www.w3.org/1999/xlink"
>
  <title>Services</title>
  <desc>A line styled icon from Orion Icon Library.</desc>
  <circle
    data-name="layer2"
    cx="26"
    cy="38"
    r="9"
    fill="none"
    stroke="#202020"
    stroke-linecap="round"
    stroke-miterlimit="10"
    stroke-width="2"
    stroke-linejoin="round"
  ></circle>
  <circle
    data-name="layer1"
    cx="45"
    cy="19"
    r="6"
    fill="none"
    stroke="#202020"
    stroke-linecap="round"
    stroke-miterlimit="10"
    stroke-width="2"
    stroke-linejoin="round"
  ></circle>
  <path
    data-name="layer2"
    d="M30 16v-.5a1.5 1.5 0 0 0-1.5-1.5h-5a1.5 1.5 0 0 0-1.5 1.5v3.93a18.874 18.874 0 0 0-6.3 2.617l-2.785-2.785a1.5 1.5 0 0 0-2.121 0L7.262 22.8a1.5 1.5 0 0 0 0 2.121l2.785 2.779A18.872 18.872 0 0 0 7.43 34H3.5A1.5 1.5 0 0 0 2 35.5v5A1.5 1.5 0 0 0 3.5 42h3.93a18.874 18.874 0 0 0 2.617 6.3l-2.785 2.782a1.5 1.5 0 0 0 0 2.121l3.538 3.535a1.5 1.5 0 0 0 2.121 0l2.779-2.784A18.874 18.874 0 0 0 22 56.57v3.93a1.5 1.5 0 0 0 1.5 1.5h5a1.5 1.5 0 0 0 1.5-1.5v-3.93a18.874 18.874 0 0 0 6.3-2.617l2.785 2.785a1.5 1.5 0 0 0 2.121 0l3.532-3.538a1.5 1.5 0 0 0 0-2.121L41.954 48.3A18.874 18.874 0 0 0 44.57 42h3.93a1.5 1.5 0 0 0 1.5-1.5v-5a1.5 1.5 0 0 0-1.5-1.5H48"
    fill="none"
    stroke="#202020"
    stroke-linecap="round"
    stroke-miterlimit="10"
    stroke-width="2"
    stroke-linejoin="round"
  ></path>
  <path
    data-name="layer1"
    d="M60.5 16h-2.862a12.911 12.911 0 0 0-1.671-3.96l2-2a1.5 1.5 0 0 0 0-2.121l-1.889-1.883a1.5 1.5 0 0 0-2.121 0l-2 2A12.911 12.911 0 0 0 48 6.362V3.5A1.5 1.5 0 0 0 46.5 2h-3A1.5 1.5 0 0 0 42 3.5v2.862a12.911 12.911 0 0 0-3.96 1.671l-2-2a1.5 1.5 0 0 0-2.121 0l-1.883 1.889a1.5 1.5 0 0 0 0 2.121l2 2A12.911 12.911 0 0 0 32.362 16H29.5a1.5 1.5 0 0 0-1.5 1.5v3a1.5 1.5 0 0 0 1.5 1.5h2.862a12.911 12.911 0 0 0 1.671 3.96l-2 2a1.5 1.5 0 0 0 0 2.121l1.886 1.886a1.5 1.5 0 0 0 2.121 0l2-2A12.911 12.911 0 0 0 42 31.638V34.5a1.5 1.5 0 0 0 1.5 1.5h3a1.5 1.5 0 0 0 1.5-1.5v-2.862a12.911 12.911 0 0 0 3.96-1.671l2 2a1.5 1.5 0 0 0 2.121 0l1.886-1.886a1.5 1.5 0 0 0 0-2.121l-2-2A12.911 12.911 0 0 0 57.638 22H60.5a1.5 1.5 0 0 0 1.5-1.5v-3a1.5 1.5 0 0 0-1.5-1.5z"
    fill="none"
    stroke="#202020"
    stroke-linecap="round"
    stroke-miterlimit="10"
    stroke-width="2"
    stroke-linejoin="round"
  ></path>
</svg>
