<!DOCTYPE svg>
<svg xmlns="http://www.w3.org/2000/svg" height="46" width="46" preserveaspectratio="none">
  <polygon points="20.1,26.6 27.6,22.7 20.1,18.8 " />
  <path
    d="M23,1.5C11.2,1.5,1.5,11.2,1.5,23c0,11.8,9.6,21.4,21.5,21.4S44.5,34.8,44.5,23C44.5,11.2,34.8,1.5,23,1.5z M36.9,24
	c0,1.5-0.1,3-0.3,4.5c-0.1,1-0.5,1.9-1.1,2.8c-0.7,0.7-1.7,1.1-2.8,1.1c-3.9,0.3-9.7,0.3-9.7,0.3s-7.2-0.1-9.4-0.3
	c-1.1,0-2.2-0.4-3.1-1.2c-0.6-0.8-1-1.8-1.1-2.8c-0.2-1.5-0.3-3-0.3-4.5v-2.1c0-1.5,0.1-3,0.3-4.5c0.1-1,0.5-1.9,1.1-2.8
	c0.7-0.7,1.7-1.2,2.8-1.2c3.9-0.3,9.7-0.3,9.7-0.3s5.8,0,9.7,0.3c1,0,2,0.4,2.8,1.2c0.6,0.8,1,1.8,1.1,2.8c0.2,1.5,0.3,3,0.3,4.5V24
	z"
  />
</svg>
