<svg id="Layer_1" data-name="Layer 1" xmlns="http://www.w3.org/2000/svg" viewBox="0 0 46 46"><defs><style>.cls-1{fill:#2e2829;}</style></defs><title>slack</title><path class="cls-1" d="M23,1.55A21.45,21.45,0,1,0,44.45,23,21.45,21.45,0,0,0,23,1.55ZM34.53,26.49l-2.63.88.91,2.72a2.11,2.11,0,0,1-1.33,2.66,1.81,1.81,0,0,1-.71.1,2.16,2.16,0,0,1-1.95-1.43l-.91-2.72L22.5,30.51l.91,2.72a2.11,2.11,0,0,1-1.33,2.66,1.81,1.81,0,0,1-.71.1,2.16,2.16,0,0,1-1.95-1.43l-.91-2.72-2.63.88a1.81,1.81,0,0,1-.71.1,2.16,2.16,0,0,1-1.95-1.43,2.11,2.11,0,0,1,1.33-2.66l2.63-.88-1.75-5.22-2.63.88a1.81,1.81,0,0,1-.71.1,2.17,2.17,0,0,1-1.95-1.43,2.11,2.11,0,0,1,1.33-2.66l2.63-.88-.91-2.72a2.1,2.1,0,0,1,4-1.33l.91,2.72,5.42-1.82-.91-2.72a2.1,2.1,0,1,1,4-1.33l.91,2.72,2.63-.88a2.1,2.1,0,0,1,1.33,4l-2.63.88,1.75,5.22,2.63-.88a2.1,2.1,0,0,1,1.33,4Z"/><rect class="cls-1" x="20.13" y="20.29" width="5.71" height="5.51" transform="translate(-6.13 8.49) rotate(-18.52)"/></svg>