<svg viewBox="0 0 150 150"><defs><style>.cls-1{fill:#2e2829}</style></defs><path class="cls-1" d="M10.99 37.39L75.37 1l63.64 36.39v74.41L75.37 149l-64.38-37.53V37.39z"/><path d="M14.04 39.18L75.35 4.52l60.62 34.66v70.86l-60.62 35.44-61.31-35.75V39.18z" fill="#ffe45d"/><path class="cls-1" d="M55.85 86.36c0-4.21-1.8-7.13-5.47-8v-6.74c3.67-.89 5.47-3.81 5.47-8 0-4.86-1.09-10.53-1.09-16.36 0-7.21 6.41-11.26 17.9-8.42l-1.8 6.89c-5.94-2.19-7.11 1-7.11 2.84 0 4.86 1 9.72 1 13.93 0 4.78-.86 9.07-6.49 12.56 5.63 3.48 6.49 7.78 6.49 12.48 0 4.21-1 9.07-1 13.93 0 1.86 1.17 5 7.11 2.84l1.8 6.89c-11.41 3-17.9-1.38-17.9-8.42 0-5.89 1.09-11.56 1.09-16.42zm21.5 24.79l1.8-6.89c5.94 2.19 7.11-1 7.11-2.84 0-4.86-1-9.72-1-13.93 0-4.62.86-9.07 6.41-12.48-5.55-3.4-6.41-7.86-6.41-12.56 0-4.21 1-9.07 1-13.93 0-1.86-1.17-5-7.11-2.84l-1.8-6.89c11.41-2.75 17.9 1.21 17.9 8.42 0 5.83-1.09 11.5-1.09 16.36 0 4.21 1.8 7.13 5.47 8v6.72c-3.67.89-5.47 3.81-5.47 8 0 4.86 1.09 10.53 1.09 16.36-.01 7.12-6.5 11.5-17.9 8.5z"/></svg>