<?xml version="1.0" standalone="no"?>
<!DOCTYPE svg PUBLIC "-//W3C//DTD SVG 20010904//EN"
 "http://www.w3.org/TR/2001/REC-SVG-20010904/DTD/svg10.dtd">
<svg version="1.0" xmlns="http://www.w3.org/2000/svg"
 width="172.000000pt" height="172.000000pt" viewBox="0 0 172.000000 172.000000"
 preserveAspectRatio="xMidYMid meet">
<metadata>
Created by potrace 1.11, written by Peter Selinger 2001-2013
</metadata>
<g transform="translate(0.000000,172.000000) scale(0.100000,-0.100000)"
fill="#000000" stroke="none">
<path d="M675 1602 c-104 -60 -215 -122 -245 -139 -196 -109 -290 -166 -291
-176 0 -7 -1 -195 -1 -419 -1 -449 -6 -415 67 -454 101 -53 207 -116 225 -134
3 -3 11 -6 19 -8 8 -2 27 -12 42 -23 15 -10 32 -19 38 -19 5 0 14 -7 19 -16 5
-9 13 -16 18 -16 20 1 73 -31 68 -40 -3 -5 0 -8 7 -6 18 3 149 -70 149 -83 0
-6 4 -8 9 -5 5 3 20 -3 34 -14 14 -11 28 -20 32 -20 3 0 57 30 118 66 62 37
117 67 123 68 6 1 19 9 28 19 10 9 24 17 32 17 8 0 14 4 14 9 0 5 8 11 18 14
22 7 75 39 83 51 4 5 15 6 25 2 10 -4 15 -4 11 0 -7 7 50 51 74 56 7 2 21 11
31 21 10 10 23 15 28 12 6 -4 10 -2 10 4 0 6 17 18 38 28 20 9 42 21 47 26 6
4 19 14 29 21 18 12 19 32 20 432 l1 419 -43 28 c-23 15 -45 27 -47 27 -2 0
-142 79 -310 176 -169 96 -312 177 -318 180 -7 2 -97 -45 -202 -104z"/>
</g>
</svg>
