<svg version="1" xmlns="http://www.w3.org/2000/svg" width="229.333" height="229.333" viewBox="0 0 172.000000 172.000000"><path d="M67.5 11.8C57.1 17.8 46 24 43 25.7 23.4 36.6 14 42.3 13.9 43.3c0 .7-.1 19.5-.1 41.9-.1 44.9-.6 41.5 6.7 45.4 10.1 5.3 20.7 11.6 22.5 13.4.3.3 1.1.6 1.9.8.8.2 2.7 1.2 4.2 2.3 1.5 1 3.2 1.9 3.8 1.9.5 0 1.4.7 1.9 1.6.5.9 1.3 1.6 1.8 1.6 2-.1 7.3 3.1 6.8 4-.3.5 0 .8.7.6 1.8-.3 14.9 7 14.9 8.3 0 .6.4.8.9.5.5-.3 2 .3 3.4 1.4 1.4 1.1 2.8 2 3.2 2 .3 0 5.7-3 11.8-6.6 6.2-3.7 11.7-6.7 12.3-6.8.6-.1 1.9-.9 2.8-1.9 1-.9 2.4-1.7 3.2-1.7.8 0 1.4-.4 1.4-.9s.8-1.1 1.8-1.4c2.2-.7 7.5-3.9 8.3-5.1.4-.5 1.5-.6 2.5-.2 1 .4 1.5.4 1.1 0-.7-.7 5-5.1 7.4-5.6.7-.2 2.1-1.1 3.1-2.1s2.3-1.5 2.8-1.2c.6.4 1 .2 1-.4 0-.6 1.7-1.8 3.8-2.8 2-.9 4.2-2.1 4.7-2.6.6-.4 1.9-1.4 2.9-2.1 1.8-1.2 1.9-3.2 2-43.2l.1-41.9-4.3-2.8c-2.3-1.5-4.5-2.7-4.7-2.7-.2 0-14.2-7.9-31-17.6-16.9-9.6-31.2-17.7-31.8-18-.7-.2-9.7 4.5-20.2 10.4z"/></svg>