<svg viewBox="0 0 46 46"><path class="black-alternative" d="M23 1.55c-11.85 0-21.45 9.85-21.45 22a22 22 0 0 0 14.67 20.86c1.07.2 1.46-.48 1.46-1.06v-3.74c-6 1.33-7.23-2.95-7.23-2.95A5.79 5.79 0 0 0 8 33.45c-1.95-1.36.15-1.34.15-1.34a4.52 4.52 0 0 1 3.29 2.27c1.91 3.36 5 2.39 6.24 1.83a4.75 4.75 0 0 1 1.36-2.94c-4.76-.56-9.77-2.44-9.77-10.87a8.62 8.62 0 0 1 2.21-5.9 8.1 8.1 0 0 1 .21-5.82s1.8-.59 5.9 2.25a19.85 19.85 0 0 1 10.74 0c4.1-2.85 5.89-2.25 5.89-2.25a8.09 8.09 0 0 1 .21 5.82 8.61 8.61 0 0 1 2.21 5.9c0 8.45-5 10.31-9.79 10.85a5.32 5.32 0 0 1 1.46 4.07v6c0 .69.39 1.27 1.48 1.06a22 22 0 0 0 14.66-20.84c0-12.14-9.6-21.99-21.45-21.99z"/></svg>