<svg viewBox="0 0 46 46">
    <path class="black-alternative" d="M23,1.55A21.45,21.45,0,1,0,44.45,23,21.45,21.45,0,0,0,23,1.55Z" />
    <circle class="fill-white" cx="8.55" cy="22.3" r="1.32" />
    <circle class="fill-white" cx="24.83" cy="10.13" r="1.32" />
    <circle class="fill-white" cx="13.57" cy="13.83" r="0.99" />
    <circle class="fill-white" cx="34.55" cy="17.06" r="1.06" />
    <circle class="fill-white" cx="36.46" cy="24.69" r="0.84" />
    <circle class="fill-white" cx="30.59" cy="35.18" r="1.36" />
    <circle class="fill-white" cx="38.15" cy="20.65" r="0.62" />
    <circle class="fill-white" cx="16.4" cy="8.66" r="0.66" />
    <circle class="fill-white" cx="12.62" cy="32.46" r="0.62" />
    <circle class="fill-white" cx="22.19" cy="37.19" r="0.81" />
    <path class="fill-white" d="M34.74,21.42c-.22-2-2.42-2.71-2.42-2.71s.88-2.2-1.76-4.69a6,6,0,0,0-6-1.17A6.32,6.32,0,0,0,19,12a6.8,6.8,0,0,0-4.25,4,3.92,3.92,0,0,0-3.3,2.42,4.75,4.75,0,0,0,.15,4.33,4.43,4.43,0,0,0-1.25,4.84A4.72,4.72,0,0,0,14.12,31s-.73,2.2,2.35,4.18a5.14,5.14,0,0,0,5.87-.29s1.25,1.54,3.89.66a3.81,3.81,0,0,0,2.35-2.64,5.55,5.55,0,0,0,5.06-2.64,5.67,5.67,0,0,0-.07-5.94A3,3,0,0,0,34.74,21.42Zm-5.24,7.44c-.11,1.06-1.39.88-2,.84s-2.53-.26-3-2c-.37-1.25.35-2,.73-3a23.24,23.24,0,0,1,1.32-2.79c.16-.29.61-1.06,0-1.32-.88-.37-2.86,4.4-3.3,5.21-.32.58-.73,2.2-2,1.91s-.73-1.54-.73-1.54l1.54-4s.36-.92-.44-1.1-1,.88-1.1,1.32c-.21.62-1.26,3.12-1.54,3.89s-.88,3.53-3.37,2.57c-1.91-.73-1.06-2.86-.77-3.78.48-1.5,1.91-5.65,1.91-5.65a2.29,2.29,0,0,1,1.43-1.58,2.37,2.37,0,0,1,2.05,0c.59.29.88.66,1.47.59a2,2,0,0,0,1.17-.81,1.2,1.2,0,0,1,1.06-.4,1.76,1.76,0,0,1,1.1.59,1.07,1.07,0,0,0,.59.37c.37.07.37-.37,1.32-.37s2,0,2.27,1.47-1.14,3.78-1.5,4.88-1,2.31-.77,3.12S29.62,27.63,29.49,28.87Z" />
</svg>