<svg id="Layer_1" data-name="Layer 1" xmlns="http://www.w3.org/2000/svg" viewBox="0 0 46 46"><defs><style>.cls-1{fill:#2e2829}.cls-2{fill:#fff}</style></defs><title>youtube</title><circle class="cls-1" cx="23" cy="23" r="21.45"/><path class="cls-2" d="M36.6 17.45a6 6 0 0 0-1.1-2.76 4 4 0 0 0-2.78-1.18c-3.88-.28-9.71-.28-9.71-.28s-5.83 0-9.71.28a4 4 0 0 0-2.78 1.18 6 6 0 0 0-1.1 2.76 42 42 0 0 0-.28 4.49V24a42 42 0 0 0 .28 4.49 6 6 0 0 0 1.1 2.76 4.71 4.71 0 0 0 3.06 1.19c2.22.21 9.44.28 9.44.28s5.83 0 9.72-.29a4 4 0 0 0 2.76-1.13 6 6 0 0 0 1.1-2.76 42 42 0 0 0 .28-4.54v-2.06a42 42 0 0 0-.28-4.49zM20.13 26.6v-7.8l7.5 3.91z" id="Lozenge"/></svg>