<!DOCTYPE svg>
<svg xmlns="http://www.w3.org/2000/svg" height="46" width="46" preserveaspectratio="none">
  <path
    d="M23,1.55c-11.85,0-21.45,9.85-21.45,22A22,22,0,0,0,16.22,44.41c1.07.2,1.46-.48,1.46-1.06V39.61c-6,1.33-7.23-3-7.23-3A5.74,5.74,0,0,0,8,33.45c-1.95-1.36.15-1.34.15-1.34a4.49,4.49,0,0,1,3.29,2.27c1.91,3.36,5,2.39,6.24,1.83A4.74,4.74,0,0,1,19,33.27c-4.76-.56-9.77-2.44-9.77-10.87a8.66,8.66,0,0,1,2.21-5.9,8.12,8.12,0,0,1,.21-5.82s1.8-.59,5.9,2.25a19.79,19.79,0,0,1,10.74,0c4.1-2.85,5.89-2.25,5.89-2.25a8.12,8.12,0,0,1,.21,5.82,8.56,8.56,0,0,1,2.21,5.9c0,8.45-5,10.31-9.79,10.85a5.33,5.33,0,0,1,1.46,4.07v6c0,.69.39,1.27,1.48,1.06A22,22,0,0,0,44.45,23.54C44.45,11.4,34.85,1.55,23,1.55Z"
  />
</svg>
