<!DOCTYPE svg>
<svg xmlns="http://www.w3.org/2000/svg" height="46" width="46" preserveaspectratio="none">
  <path
    d="M23,1.55A21.45,21.45,0,1,0,44.45,23h0A21.45,21.45,0,0,0,23,1.55ZM34.53,26.49l-2.63.88.91,2.72a2.11,2.11,0,0,1-1.33,2.66,1.91,1.91,0,0,1-.71.1,2.16,2.16,0,0,1-1.95-1.43l-.91-2.72L22.5,30.51l.91,2.72a2.11,2.11,0,0,1-1.33,2.66,1.91,1.91,0,0,1-.71.1,2.16,2.16,0,0,1-1.95-1.43l-.91-2.72-2.63.88a1.91,1.91,0,0,1-.71.1,2.16,2.16,0,0,1-1.95-1.43,2.11,2.11,0,0,1,1.33-2.66l2.63-.88-1.75-5.22-2.63.88a1.91,1.91,0,0,1-.71.1,2.17,2.17,0,0,1-1.95-1.43,2.11,2.11,0,0,1,1.33-2.66l2.63-.88-.91-2.72a2.11,2.11,0,1,1,4-1.33h0l.91,2.72,5.42-1.82-.91-2.72a2.11,2.11,0,1,1,4-1.33h0l.91,2.72,2.63-.88a2.11,2.11,0,1,1,1.33,4l-2.63.88,1.75,5.22,2.63-.88a2.11,2.11,0,1,1,1.33,4h0Z"
  />
  <rect
    x="20.13"
    y="20.29"
    width="5.71"
    height="5.51"
    transform="translate(-6.13 8.49) rotate(-18.52)"
  />
</svg>
