<!DOCTYPE svg>
<svg xmlns="http://www.w3.org/2000/svg" height="46" width="46" preserveaspectratio="none">
  <path
    d="M23,1.55A21.45,21.45,0,1,0,44.45,23h0A21.45,21.45,0,0,0,23,1.55ZM34.19,19.14A14.06,14.06,0,0,1,12.55,31.63a9.92,9.92,0,0,0,7.32-2,5,5,0,0,1-4.62-3.43,5.09,5.09,0,0,0,2.23-.08,5,5,0,0,1-4-4.91,5,5,0,0,0,2.24.62,5,5,0,0,1-1.53-6.6A14,14,0,0,0,24.38,20.4a5,5,0,0,1,8.43-4.51A9.7,9.7,0,0,0,36,14.62a5,5,0,0,1-2.17,2.74,10,10,0,0,0,2.84-.78A10.23,10.23,0,0,1,34.19,19.14Z"
  />
</svg>
