<svg xmlns="http://www.w3.org/2000/svg">
    <circle cx="23" cy="23" r="21.45" />
    <path fill="white" d="M36.6,17.45a6,6,0,0,0-1.1-2.76,4,4,0,0,0-2.78-1.18c-3.88-.28-9.71-.28-9.71-.28h0s-5.83,0-9.71.28a4,4,0,0,0-2.78,1.18,6,6,0,0,0-1.1,2.76,42,42,0,0,0-.28,4.49V24a42,42,0,0,0,.28,4.49,6,6,0,0,0,1.1,2.76,4.71,4.71,0,0,0,3.06,1.19c2.22.21,9.44.28,9.44.28s5.83,0,9.72-.29A4,4,0,0,0,35.5,31.3a6,6,0,0,0,1.1-2.76A42,42,0,0,0,36.88,24V21.94A42,42,0,0,0,36.6,17.45ZM20.13,26.6V18.8l7.5,3.91Z" />
</svg>