<svg id="Layer_1" data-name="Layer 1" xmlns="http://www.w3.org/2000/svg" viewBox="0 0 46 46"><defs><style>.cls-1{fill:#2e2829;}</style></defs><title>twitter</title><path class="cls-1" d="M23,1.55A21.45,21.45,0,1,0,44.45,23,21.45,21.45,0,0,0,23,1.55ZM34.19,19.14A14.06,14.06,0,0,1,12.55,31.63a9.94,9.94,0,0,0,7.32-2,5,5,0,0,1-4.62-3.43,5,5,0,0,0,2.23-.08,5,5,0,0,1-4-4.91,4.93,4.93,0,0,0,2.24.62,5,5,0,0,1-1.53-6.6,14,14,0,0,0,10.19,5.17,4.95,4.95,0,0,1,8.43-4.51A9.91,9.91,0,0,0,36,14.62a5,5,0,0,1-2.17,2.74,9.88,9.88,0,0,0,2.84-.78A10,10,0,0,1,34.19,19.14Z"/></svg>