<svg viewBox="0 0 132 155">
    <defs>
        <style>
            .cls-1 {
                fill: #2e2829;
            }
            
            .cls-2 {
                fill: #ffe45d;
            }
        </style>
    </defs>
    <polygon class="cls-1" points="1 39.31 66.37 2.36 131 39.31 131 114.86 66.37 152.64 1 114.53 1 39.31"/>
    <polygon class="cls-2" points="4.09 41.13 66.36 5.94 127.91 41.13 127.91 113.08 66.36 149.06 4.09 112.77 4.09 41.13"/>
    <path class="cls-1" d="M51.18,69.27c0-3.26-1.39-5.52-4.23-6.21v-5.2c2.84-.69,4.23-2.95,4.23-6.21,0-3.76-.85-8.15-.85-12.66,0-5.58,5-8.71,13.85-6.52L62.79,37.8c-4.6-1.69-5.5.75-5.5,2.19,0,3.76.79,7.52.79,10.78,0,3.7-.67,7-5,9.72,4.35,2.7,5,6,5,9.65,0,3.26-.79,7-.79,10.78,0,1.44.91,3.89,5.5,2.19l1.39,5.33c-8.83,2.32-13.85-1.07-13.85-6.52C50.34,77.42,51.18,73,51.18,69.27Z"/>
    <path class="cls-1" d="M67.81,88.45l1.39-5.33c4.6,1.69,5.5-.75,5.5-2.19,0-3.76-.79-7.52-.79-10.78,0-3.57.66-7,5-9.65-4.29-2.63-5-6.08-5-9.72,0-3.26.79-7,.79-10.78,0-1.44-.91-3.89-5.5-2.19l-1.39-5.33c8.83-2.13,13.85.94,13.85,6.52,0,4.51-.85,8.9-.85,12.66,0,3.26,1.39,5.52,4.23,6.21v5.2c-2.84.69-4.23,2.95-4.23,6.21,0,3.76.85,8.15.85,12.66C81.66,87.38,76.64,90.77,67.81,88.45Z"/>
    <path class="cls-1" d="M26.4,100.24h.72v2h0a2.62,2.62,0,0,1,.4-.86,3.08,3.08,0,0,1,.69-.71,3.28,3.28,0,0,1,2-.65,3.67,3.67,0,0,1,1.21.18,2.89,2.89,0,0,1,.87.47,2.35,2.35,0,0,1,.57.66,2.55,2.55,0,0,1,.28.75h0a3.55,3.55,0,0,1,1.17-1.55,3.25,3.25,0,0,1,1.93-.52,3.62,3.62,0,0,1,1.22.2,2.57,2.57,0,0,1,1,.61,2.78,2.78,0,0,1,.64,1,4.33,4.33,0,0,1,.23,1.48V110h-.72v-6.68a3.11,3.11,0,0,0-.29-1.46,2.29,2.29,0,0,0-.67-.81,1.9,1.9,0,0,0-.78-.34,3.84,3.84,0,0,0-.6-.07,3.22,3.22,0,0,0-1.22.23,2.6,2.6,0,0,0-1,.68,3.2,3.2,0,0,0-.64,1.13,4.82,4.82,0,0,0-.23,1.55V110H32.5v-6.68a3.22,3.22,0,0,0-.28-1.45,2.19,2.19,0,0,0-.64-.81,1.93,1.93,0,0,0-.76-.34,3.36,3.36,0,0,0-.62-.08,3,3,0,0,0-2.07.85,3.27,3.27,0,0,0-.74,1.12,4.18,4.18,0,0,0-.28,1.61V110H26.4Z"/>
    <path class="cls-1" d="M41.74,105.21v.11A5.76,5.76,0,0,0,42,107a4.18,4.18,0,0,0,.68,1.37,3.21,3.21,0,0,0,1.12.93,3.43,3.43,0,0,0,1.57.34,3.35,3.35,0,0,0,2.32-.77,4,4,0,0,0,1.18-2.14h.72a4.36,4.36,0,0,1-1.39,2.62,4.23,4.23,0,0,1-2.84.91,4.3,4.3,0,0,1-1.89-.39,3.83,3.83,0,0,1-1.35-1.06,4.52,4.52,0,0,1-.81-1.59,7.13,7.13,0,0,1-.27-2,6.94,6.94,0,0,1,.28-2,4.92,4.92,0,0,1,.83-1.65,4.07,4.07,0,0,1,1.38-1.14,4.17,4.17,0,0,1,1.94-.43,4.12,4.12,0,0,1,1.81.38,3.8,3.8,0,0,1,1.32,1,4.6,4.6,0,0,1,.81,1.52,6.06,6.06,0,0,1,.28,1.85c0,.06,0,.14,0,.22s0,.15,0,.2Zm7.17-.63a5.83,5.83,0,0,0-.27-1.51,3.72,3.72,0,0,0-.68-1.25,3.36,3.36,0,0,0-1.08-.86,3.18,3.18,0,0,0-1.46-.32,3.41,3.41,0,0,0-1.54.33,3.48,3.48,0,0,0-1.12.87,3.88,3.88,0,0,0-.7,1.26,5.9,5.9,0,0,0-.3,1.48Z"/>
    <path class="cls-1" d="M51.59,105.21v.11a5.76,5.76,0,0,0,.23,1.63,4.18,4.18,0,0,0,.68,1.37,3.21,3.21,0,0,0,1.12.93,3.43,3.43,0,0,0,1.57.34,3.35,3.35,0,0,0,2.32-.77,4,4,0,0,0,1.18-2.14h.72A4.36,4.36,0,0,1,58,109.31a4.23,4.23,0,0,1-2.84.91,4.3,4.3,0,0,1-1.89-.39,3.83,3.83,0,0,1-1.35-1.06,4.52,4.52,0,0,1-.81-1.59,7.13,7.13,0,0,1-.27-2,6.94,6.94,0,0,1,.28-2,4.93,4.93,0,0,1,.83-1.65,4.08,4.08,0,0,1,1.38-1.14,4.17,4.17,0,0,1,1.94-.43,4.12,4.12,0,0,1,1.81.38,3.79,3.79,0,0,1,1.32,1,4.6,4.6,0,0,1,.81,1.52,6.07,6.07,0,0,1,.28,1.85c0,.06,0,.14,0,.22s0,.15,0,.2Zm7.17-.63a5.83,5.83,0,0,0-.27-1.51,3.72,3.72,0,0,0-.68-1.25,3.36,3.36,0,0,0-1.08-.86,3.18,3.18,0,0,0-1.46-.32,3.41,3.41,0,0,0-1.54.33,3.48,3.48,0,0,0-1.12.87,3.88,3.88,0,0,0-.7,1.26,5.9,5.9,0,0,0-.3,1.48Z"/>
    <path class="cls-1" d="M64.76,100.87H62.63v6.81a2.63,2.63,0,0,0,.13.93,1.06,1.06,0,0,0,.41.52,1.45,1.45,0,0,0,.66.22,6.67,6.67,0,0,0,.9,0V110a6.67,6.67,0,0,1-1.07,0,2.15,2.15,0,0,1-.92-.28,1.67,1.67,0,0,1-.64-.71,2.68,2.68,0,0,1-.2-1.31v-6.81h-1.8v-.63h1.8v-3h.72v3h2.13Z"/>
    <path class="cls-1" d="M73.81,110h-.72v-2.09h0a3.14,3.14,0,0,1-.54,1,3.59,3.59,0,0,1-1.83,1.19,4.18,4.18,0,0,1-1.12.15,4.45,4.45,0,0,1-1.45-.21,2.85,2.85,0,0,1-1-.55,2.64,2.64,0,0,1-.6-.77,3.56,3.56,0,0,1-.31-.86,5.09,5.09,0,0,1-.11-.84q0-.41,0-.71v-6h.72v6.17a9,9,0,0,0,.06.92,2.75,2.75,0,0,0,.33,1,2.43,2.43,0,0,0,.83.86,2.83,2.83,0,0,0,1.56.36,3.45,3.45,0,0,0,1.47-.3,3.17,3.17,0,0,0,1.11-.84,3.71,3.71,0,0,0,.69-1.29,5.42,5.42,0,0,0,.24-1.64v-5.27h.72Z"/>
    <path class="cls-1" d="M76.8,102.48h.06a3.72,3.72,0,0,1,.38-.8,3.34,3.34,0,0,1,.7-.81,3.74,3.74,0,0,1,2.47-.86,4.27,4.27,0,0,1,1.95.42,3.94,3.94,0,0,1,1.37,1.12,4.81,4.81,0,0,1,.81,1.63,7.09,7.09,0,0,1,.27,2,7.43,7.43,0,0,1-.27,2,4.49,4.49,0,0,1-.81,1.6,3.71,3.71,0,0,1-1.37,1.05,4.64,4.64,0,0,1-1.95.38,4.37,4.37,0,0,1-2.17-.53A3.1,3.1,0,0,1,76.84,108h0v5.52h-.7V100.24h.7Zm3.6,7.11a3.53,3.53,0,0,0,1.64-.36,3.26,3.26,0,0,0,1.14-1,4.23,4.23,0,0,0,.67-1.41,6.69,6.69,0,0,0,0-3.36,4.52,4.52,0,0,0-.65-1.44,3.32,3.32,0,0,0-1.13-1,3.4,3.4,0,0,0-1.68-.39,3.37,3.37,0,0,0-1.66.38,3.21,3.21,0,0,0-1.11,1,4.23,4.23,0,0,0-.62,1.43,7.28,7.28,0,0,0-.19,1.68,8.05,8.05,0,0,0,.17,1.68,4.06,4.06,0,0,0,.58,1.42,3,3,0,0,0,1.1,1A3.62,3.62,0,0,0,80.4,109.6Z"/>
    <path class="cls-1" d="M89.54,107.07V110h-3v-2.92Z"/>
    <path class="cls-1" d="M90.92,111.21a1.57,1.57,0,0,0,.73-.16q.31-.16.31-.71V100.18h2.69v10.28a4.72,4.72,0,0,1-.16,1.31,2,2,0,0,1-.55.92,2.41,2.41,0,0,1-1.05.55,6.59,6.59,0,0,1-1.69.18,4.4,4.4,0,0,1-.85-.08v-2.22A1.73,1.73,0,0,0,90.92,111.21Zm1-12.54V96.45h2.69v2.22Z"/>
    <path class="cls-1" d="M99.26,107.56a1.57,1.57,0,0,0,.46.51,2,2,0,0,0,.65.29,3.06,3.06,0,0,0,.77.09,2.89,2.89,0,0,0,.6-.07,2,2,0,0,0,.57-.21,1.29,1.29,0,0,0,.43-.38,1,1,0,0,0,.17-.6q0-.61-.81-.91a16.08,16.08,0,0,0-2.25-.61q-.59-.13-1.15-.31a3.89,3.89,0,0,1-1-.47,2.31,2.31,0,0,1-.7-.74,2.1,2.1,0,0,1-.26-1.09,3,3,0,0,1,.37-1.56,2.72,2.72,0,0,1,1-1,4.28,4.28,0,0,1,1.37-.49,8.4,8.4,0,0,1,1.56-.14,7.81,7.81,0,0,1,1.55.15,4.09,4.09,0,0,1,1.34.51,3.07,3.07,0,0,1,1,1,3.21,3.21,0,0,1,.46,1.51h-2.56a1.18,1.18,0,0,0-.59-1.05,2.69,2.69,0,0,0-1.25-.28l-.49,0a1.65,1.65,0,0,0-.48.12,1,1,0,0,0-.37.28.72.72,0,0,0-.15.48.74.74,0,0,0,.27.59,2,2,0,0,0,.69.37,8.57,8.57,0,0,0,1,.26l1.12.25a11.56,11.56,0,0,1,1.15.32,3.76,3.76,0,0,1,1,.5,2.44,2.44,0,0,1,.7.78,2.28,2.28,0,0,1,.27,1.15,3,3,0,0,1-1.4,2.68,4.16,4.16,0,0,1-1.43.56,8.4,8.4,0,0,1-1.64.16,8.14,8.14,0,0,1-1.67-.17A4.4,4.4,0,0,1,98,109.5a3.24,3.24,0,0,1-1-1.05,3.28,3.28,0,0,1-.45-1.64h2.56A1.47,1.47,0,0,0,99.26,107.56Z"/>
    <path class="cls-1" d="M40.86,119.54l-.3-.12.29-.14a1.72,1.72,0,0,0,1-1.53c0-1.15-.88-1.78-2.46-1.78H37.38v7.13h2c1.74,0,2.74-.71,2.74-1.95A1.75,1.75,0,0,0,40.86,119.54Zm-2.46-2.9h.87c1.38,0,1.52.9,1.52,1.28,0,.79-.52,1.24-1.41,1.24h-1Zm1.07,5.82H38.4v-2.66h1c1.48,0,1.64,1,1.64,1.37S40.8,122.46,39.48,122.46Z"/>
    <path class="cls-1" d="M47.83,120.62v-2.67h-1v2.53a2.21,2.21,0,0,1-.55,1.63,1.29,1.29,0,0,1-.91.43c-.39,0-.86-.2-.86-1.13v-3.46h-1v3.49a1.9,1.9,0,0,0,.42,1.38,1.39,1.39,0,0,0,1,.36,1.9,1.9,0,0,0,1.81-1.1l.21-.44.07.48a2.28,2.28,0,0,0,.3.85,2.35,2.35,0,0,0,.15.21l.74-.29a2.12,2.12,0,0,1-.19-.4A5.54,5.54,0,0,1,47.83,120.62Z"/>
    <path class="cls-1" d="M51.91,117.82c-1.54,0-2.5,1.09-2.5,2.85s.75,2.53,2.22,2.53A4.3,4.3,0,0,0,53,123c.16-.06.32-.11.48-.19l-.22-.53-.42.15a3.83,3.83,0,0,1-1.06.19,1.33,1.33,0,0,1-1.35-1.35l0-.16h.16c1.73,0,3-.8,3-1.83S53,117.82,51.91,117.82Zm-1.33,2.73h-.15v-.15c.06-1.65.78-2,1.38-2a.78.78,0,0,1,.81.83C52.63,119.84,52,120.51,50.58,120.55Z"/>
    <path class="cls-1" d="M57.94,117.86A1.9,1.9,0,0,0,56.12,119l-.18.41-.09-.44a2.75,2.75,0,0,0-.3-.83l-.14-.2-.74.29a2.58,2.58,0,0,1,.18.4,5.51,5.51,0,0,1,.28,1.87v2.62h1v-2.53a2.11,2.11,0,0,1,.53-1.58,1.31,1.31,0,0,1,.93-.44c.39,0,.86.2.86,1.15v3.4h1V119.6a1.91,1.91,0,0,0-.42-1.38A1.39,1.39,0,0,0,57.94,117.86Z"/>
    <path class="cls-1" d="M63.19,117.82c-1.47,0-2.35,1-2.35,2.77s.76,2.64,2.26,2.64c1.74,0,2.35-1.43,2.35-2.76C65.45,118.71,64.69,117.82,63.19,117.82Zm0,4.77c-1.16,0-1.29-1.2-1.29-2.1s.12-2,1.17-2,1.29,1.21,1.29,2.12S64.25,122.58,63.2,122.58Z"/>
    <path class="cls-1" d="M68.69,120.19c-.83-.32-1-.77-1-1.1s.3-.63.76-.63a3,3,0,0,1,.9.19l.31.12.27-.6-.38-.15a3.33,3.33,0,0,0-1.14-.21,1.58,1.58,0,0,0-1.71,1.39c0,.79.4,1.23,1.49,1.64.74.29.89.72.89,1s-.09.7-.89.7a2.59,2.59,0,0,1-1-.28l-.38-.19-.29.66A4.54,4.54,0,0,0,67,123a3.94,3.94,0,0,0,1.29.25,1.59,1.59,0,0,0,1.77-1.49C70.07,120.88,69.57,120.52,68.69,120.19Z"/>
    <path class="cls-1" d="M74.48,116l-2.74,7.13h1l.69-1.94H76.3l.68,1.94h1.09L75.33,116Zm1.58,4.5H73.68l.07-.19c.38-1.06.67-2,.89-2.68l.25-.8.13.46c.19.66.54,1.8,1,3Z"/>
    <path class="cls-1" d="M80.57,122.52c-.4,0-.45-.3-.45-.57v-4h-1v4.12a1,1,0,0,0,1.05,1.09,1.84,1.84,0,0,0,.55-.07l.08,0-.09-.56Z"/>
    <path class="cls-1" d="M79.61,116.75a.58.58,0,0,0,.62-.63.55.55,0,0,0-.59-.61.59.59,0,0,0-.62.65A.56.56,0,0,0,79.61,116.75Z"/>
    <path class="cls-1" d="M84.63,117.87A1.45,1.45,0,0,0,83.19,119l-.17.49-.1-.51a2.47,2.47,0,0,0-.3-.8l-.14-.19-.73.29a2.61,2.61,0,0,1,.18.4,5.51,5.51,0,0,1,.28,1.87v2.62h1v-2.88a1.4,1.4,0,0,1,1.24-1.43,1.27,1.27,0,0,1,.44.07l.27-.94-.07,0A1.89,1.89,0,0,0,84.63,117.87Z"/>
    <path class="cls-1" d="M88.37,117.82c-1.54,0-2.5,1.09-2.5,2.85s.75,2.53,2.22,2.53a4.3,4.3,0,0,0,1.4-.24c.16-.06.32-.11.48-.19l-.22-.53-.42.15a3.84,3.84,0,0,1-1.06.19,1.33,1.33,0,0,1-1.35-1.35l0-.16h.16c1.73,0,3-.8,3-1.83S89.46,117.82,88.37,117.82ZM87,120.55h-.15v-.15c.06-1.65.78-2,1.38-2a.78.78,0,0,1,.81.83C89.08,119.84,88.44,120.51,87,120.55Z"/>
    <path class="cls-1" d="M93.25,120.19c-.83-.32-1-.77-1-1.1s.3-.63.76-.63a3,3,0,0,1,.9.19l.31.12.27-.6L94.1,118a3.32,3.32,0,0,0-1.14-.21,1.58,1.58,0,0,0-1.71,1.39c0,.79.4,1.23,1.48,1.64.74.29.89.72.89,1s-.09.7-.89.7a2.6,2.6,0,0,1-1-.28l-.38-.19-.29.66a4.57,4.57,0,0,0,.47.19,3.94,3.94,0,0,0,1.29.25,1.59,1.59,0,0,0,1.77-1.49C94.62,120.88,94.12,120.52,93.25,120.19Z"/>
</svg>