<svg xmlns="http://www.w3.org/2000/svg" height="155" width="132"><path fill="#2e2829" d="M1 39.31L66.37 2.36 131 39.31v75.55l-64.63 37.78L1 114.53V39.31z"/><path fill="#ffe45d" d="M4.09 41.13L66.36 5.94l61.55 35.19v71.95l-61.55 35.98-62.27-36.29V41.13z"/><path fill="#2e2829" d="M51.18 69.27c0-3.26-1.39-5.52-4.23-6.21v-5.2c2.84-.69 4.23-3 4.23-6.21 0-3.76-.85-8.15-.85-12.66 0-5.58 5-8.71 13.85-6.52l-1.39 5.33c-4.6-1.69-5.5.75-5.5 2.19 0 3.76.79 7.52.79 10.78 0 3.7-.67 7-5 9.72 4.35 2.7 5 6 5 9.65 0 3.26-.79 7-.79 10.78 0 1.44.91 3.89 5.5 2.19l1.39 5.33c-8.83 2.32-13.85-1.07-13.85-6.52.01-4.5.85-8.92.85-12.65zm16.63 19.18l1.39-5.33c4.6 1.69 5.5-.75 5.5-2.19 0-3.76-.79-7.52-.79-10.78 0-3.57.66-7 5-9.65-4.29-2.63-5-6.08-5-9.72 0-3.26.79-7 .79-10.78 0-1.44-.91-3.89-5.5-2.19l-1.39-5.33c8.83-2.13 13.85.94 13.85 6.52 0 4.51-.85 8.9-.85 12.66 0 3.26 1.39 5.52 4.23 6.21v5.2c-2.84.69-4.23 2.95-4.23 6.21 0 3.76.85 8.15.85 12.66 0 5.44-5.02 8.83-13.85 6.51zM26.4 100.24h.72v2a2.7 2.7 0 0 1 .4-.86 3.1 3.1 0 0 1 .69-.71 3.28 3.28 0 0 1 2-.65 3.55 3.55 0 0 1 1.21.18 2.94 2.94 0 0 1 .87.47 2.4 2.4 0 0 1 .57.66 2.52 2.52 0 0 1 .28.75 3.52 3.52 0 0 1 1.17-1.55 3.29 3.29 0 0 1 1.93-.52 3.59 3.59 0 0 1 1.22.2 2.46 2.46 0 0 1 1 .61 2.77 2.77 0 0 1 .64 1 4.4 4.4 0 0 1 .23 1.48v6.7h-.72v-6.68a3.21 3.21 0 0 0-.29-1.46 2.3 2.3 0 0 0-.67-.81 1.88 1.88 0 0 0-.78-.34 4.09 4.09 0 0 0-.6-.07 3.19 3.19 0 0 0-1.22.23 2.62 2.62 0 0 0-1 .68 3.1 3.1 0 0 0-.64 1.13 4.78 4.78 0 0 0-.23 1.55V110h-.68v-6.68a3.29 3.29 0 0 0-.28-1.45 2.3 2.3 0 0 0-.64-.81 1.94 1.94 0 0 0-.76-.34 3.19 3.19 0 0 0-.62-.08 3 3 0 0 0-2.07.85 3.37 3.37 0 0 0-.74 1.12 4.2 4.2 0 0 0-.28 1.61V110h-.71zm15.34 4.97v.11A5.61 5.61 0 0 0 42 107a4.19 4.19 0 0 0 .68 1.37 3.25 3.25 0 0 0 1.12.93 3.42 3.42 0 0 0 1.57.34 3.38 3.38 0 0 0 2.32-.77 4 4 0 0 0 1.18-2.14h.72a4.31 4.31 0 0 1-1.39 2.62 4.21 4.21 0 0 1-2.84.91 4.39 4.39 0 0 1-1.89-.39 3.88 3.88 0 0 1-1.35-1.06 4.52 4.52 0 0 1-.81-1.59 7.41 7.41 0 0 1 0-4 4.84 4.84 0 0 1 .83-1.65 4 4 0 0 1 1.38-1.14 4.08 4.08 0 0 1 1.94-.43 4.2 4.2 0 0 1 1.81.38 3.7 3.7 0 0 1 1.32 1 4.65 4.65 0 0 1 .81 1.52 6.1 6.1 0 0 1 .28 1.85v.42zm7.17-.63a5.58 5.58 0 0 0-.27-1.51 3.71 3.71 0 0 0-.68-1.25 3.34 3.34 0 0 0-1.08-.86 3.18 3.18 0 0 0-1.46-.32 3.42 3.42 0 0 0-1.54.33 3.53 3.53 0 0 0-1.12.87 3.81 3.81 0 0 0-.7 1.26 6.27 6.27 0 0 0-.3 1.48zm2.68.63v.11a6 6 0 0 0 .23 1.63 4.19 4.19 0 0 0 .68 1.37 3.25 3.25 0 0 0 1.12.93 3.42 3.42 0 0 0 1.57.34 3.38 3.38 0 0 0 2.32-.77 4 4 0 0 0 1.18-2.14h.72a4.38 4.38 0 0 1-1.41 2.63 4.21 4.21 0 0 1-2.84.91 4.39 4.39 0 0 1-1.89-.39 3.88 3.88 0 0 1-1.35-1.06 4.52 4.52 0 0 1-.81-1.59 7.41 7.41 0 0 1 0-4 4.84 4.84 0 0 1 .83-1.65 4 4 0 0 1 1.38-1.14 4.08 4.08 0 0 1 1.94-.43 4.2 4.2 0 0 1 1.81.38 3.7 3.7 0 0 1 1.32 1 4.65 4.65 0 0 1 .81 1.52 6.1 6.1 0 0 1 .28 1.85v.42zm7.17-.63a5.58 5.58 0 0 0-.27-1.51 3.71 3.71 0 0 0-.68-1.25 3.34 3.34 0 0 0-1.08-.86 3.18 3.18 0 0 0-1.46-.32 3.42 3.42 0 0 0-1.54.33 3.53 3.53 0 0 0-1.12.87 3.81 3.81 0 0 0-.7 1.26 6.27 6.27 0 0 0-.3 1.48zm6-3.71h-2.13v6.81a2.65 2.65 0 0 0 .13.93 1.1 1.1 0 0 0 .41.52 1.44 1.44 0 0 0 .66.22 6.76 6.76 0 0 0 .9 0v.65a6.37 6.37 0 0 1-1.07 0 2.14 2.14 0 0 1-.92-.28 1.69 1.69 0 0 1-.64-.71 2.66 2.66 0 0 1-.2-1.31v-6.81h-1.8v-.63h1.8v-3h.72v3h2.13zm9.05 9.13h-.72v-2.09a3.24 3.24 0 0 1-.54 1 3.58 3.58 0 0 1-1.83 1.19 4.2 4.2 0 0 1-1.12.15 4.47 4.47 0 0 1-1.45-.21 2.72 2.72 0 0 1-1-.55 2.63 2.63 0 0 1-.6-.77 3.68 3.68 0 0 1-.31-.86 4.83 4.83 0 0 1-.11-.84v-6.71h.72v6.17a7.11 7.11 0 0 0 .06.92 2.74 2.74 0 0 0 .33 1 2.44 2.44 0 0 0 .83.86 2.83 2.83 0 0 0 1.56.36 3.37 3.37 0 0 0 1.47-.3 3.06 3.06 0 0 0 1.11-.84 3.74 3.74 0 0 0 .69-1.29 5.66 5.66 0 0 0 .24-1.64v-5.27h.72zm2.99-7.52h.06a3.45 3.45 0 0 1 .38-.8 3.2 3.2 0 0 1 .7-.81 3.76 3.76 0 0 1 2.47-.86 4.26 4.26 0 0 1 2 .42 3.91 3.91 0 0 1 1.37 1.12 4.79 4.79 0 0 1 .81 1.63 7.1 7.1 0 0 1 .27 2 7.48 7.48 0 0 1-.27 2 4.57 4.57 0 0 1-.81 1.6 3.81 3.81 0 0 1-1.37 1 4.5 4.5 0 0 1-2 .38 4.44 4.44 0 0 1-2.17-.53 3.09 3.09 0 0 1-1.4-1.68v5.52h-.7v-13.23h.7zm3.6 7.11a3.57 3.57 0 0 0 1.64-.36 3.32 3.32 0 0 0 1.14-1 4.08 4.08 0 0 0 .67-1.41 6.6 6.6 0 0 0 0-3.36 4.56 4.56 0 0 0-.65-1.46 3.2 3.2 0 0 0-1.13-1 3.4 3.4 0 0 0-1.68-.39 3.3 3.3 0 0 0-1.66.38 3.22 3.22 0 0 0-1.11 1 4.35 4.35 0 0 0-.62 1.43 7.27 7.27 0 0 0-.19 1.68 7.92 7.92 0 0 0 .19 1.7 4 4 0 0 0 .58 1.42 3.1 3.1 0 0 0 1.1 1 3.63 3.63 0 0 0 1.74.38zm9.14-2.52V110h-3v-2.92zm1.38 4.14a1.55 1.55 0 0 0 .73-.16c.21-.11.31-.34.31-.71v-10.16h2.69v10.28a4.85 4.85 0 0 1-.16 1.31 2.07 2.07 0 0 1-.55.92 2.37 2.37 0 0 1-1 .55 6.84 6.84 0 0 1-1.69.18 4.8 4.8 0 0 1-.85-.08v-2.22a1.84 1.84 0 0 0 .52.09zm1-12.54v-2.22h2.69v2.22zm7.34 8.89a1.5 1.5 0 0 0 .46.51 2.23 2.23 0 0 0 .65.29 3.31 3.31 0 0 0 .77.09 3.07 3.07 0 0 0 .6-.07 2 2 0 0 0 .57-.21 1.21 1.21 0 0 0 .43-.38 1 1 0 0 0 .17-.6c0-.41-.27-.71-.81-.91a15.91 15.91 0 0 0-2.25-.61c-.39-.09-.78-.19-1.15-.31a4.15 4.15 0 0 1-1-.47 2.25 2.25 0 0 1-.7-.74 2.17 2.17 0 0 1-.26-1.09 3 3 0 0 1 .37-1.56 2.67 2.67 0 0 1 1-1 4.24 4.24 0 0 1 1.37-.49 8.16 8.16 0 0 1 1.56-.14 8.06 8.06 0 0 1 1.55.15 4 4 0 0 1 1.34.51 3 3 0 0 1 1 1 3.25 3.25 0 0 1 .46 1.51h-2.56a1.2 1.2 0 0 0-.59-1.05 2.72 2.72 0 0 0-1.25-.28h-.49a1.88 1.88 0 0 0-.48.12 1 1 0 0 0-.37.28.81.81 0 0 0 .12 1.07 2 2 0 0 0 .69.37 8.64 8.64 0 0 0 1 .26l1.12.25a11.53 11.53 0 0 1 1.15.32 3.75 3.75 0 0 1 1 .5 2.37 2.37 0 0 1 .7.78 2.3 2.3 0 0 1 .27 1.15 3 3 0 0 1-1.4 2.68 4.31 4.31 0 0 1-1.43.56 8.21 8.21 0 0 1-1.64.16 8.52 8.52 0 0 1-1.67-.17 4.33 4.33 0 0 1-1.56-.54 3.23 3.23 0 0 1-1.45-2.69h2.56a1.39 1.39 0 0 0 .15.75zm-58.4 11.98l-.3-.12.29-.14a1.72 1.72 0 0 0 1-1.53c0-1.15-.88-1.78-2.46-1.78h-2v7.13h2c1.74 0 2.74-.71 2.74-1.95a1.75 1.75 0 0 0-1.27-1.61zm-2.46-2.9h.87c1.38 0 1.52.9 1.52 1.28 0 .79-.52 1.24-1.41 1.24h-1zm1.07 5.82H38.4v-2.66h1c1.48 0 1.64 1 1.64 1.37s-.24 1.29-1.56 1.29zm8.36-1.84V118h-1v2.53a2.21 2.21 0 0 1-.55 1.63 1.27 1.27 0 0 1-.91.43c-.39 0-.86-.2-.86-1.13V118h-1v3.49a1.87 1.87 0 0 0 .42 1.38 1.36 1.36 0 0 0 1 .36 1.9 1.9 0 0 0 1.81-1.1l.21-.44.07.48a2.17 2.17 0 0 0 .3.85l.15.21.74-.29a2.09 2.09 0 0 1-.19-.4 5.62 5.62 0 0 1-.19-1.92zm4.08-2.8c-1.54 0-2.5 1.09-2.5 2.85s.75 2.53 2.22 2.53A4.25 4.25 0 0 0 53 123a4.78 4.78 0 0 0 .48-.19l-.22-.53-.42.15a3.81 3.81 0 0 1-1.06.19 1.34 1.34 0 0 1-1.35-1.31v-.2h.16c1.73 0 3-.8 3-1.83s-.59-1.46-1.68-1.46zm-1.33 2.73h-.15v-.15c.06-1.65.78-2 1.38-2a.78.78 0 0 1 .81.75v.08c.01.61-.62 1.28-2.04 1.32zm7.36-2.69a1.9 1.9 0 0 0-1.82 1.14l-.18.41-.09-.44a2.76 2.76 0 0 0-.3-.83l-.14-.2-.74.29a2.87 2.87 0 0 1 .18.4 5.41 5.41 0 0 1 .28 1.87v2.62h1v-2.53a2.08 2.08 0 0 1 .53-1.58 1.29 1.29 0 0 1 .93-.44c.39 0 .86.2.86 1.15v3.4h1v-3.52a1.91 1.91 0 0 0-.42-1.38 1.4 1.4 0 0 0-1.09-.36zm5.25-.04c-1.47 0-2.35 1-2.35 2.77s.76 2.64 2.26 2.64c1.74 0 2.35-1.43 2.35-2.76 0-1.76-.76-2.65-2.26-2.65zm0 4.77c-1.16 0-1.29-1.2-1.29-2.1s.12-2 1.17-2 1.29 1.21 1.29 2.12-.11 2-1.16 2zm5.5-2.4c-.83-.32-1-.77-1-1.1a.69.69 0 0 1 .76-.63 3.08 3.08 0 0 1 .9.19l.31.12.27-.6-.38-.15a3.16 3.16 0 0 0-1.14-.21 1.58 1.58 0 0 0-1.71 1.39c0 .79.4 1.23 1.49 1.64.74.29.89.72.89 1s-.09.7-.89.7a2.5 2.5 0 0 1-1-.28l-.38-.19-.29.66a3.72 3.72 0 0 0 .48.27 4 4 0 0 0 1.29.25 1.59 1.59 0 0 0 1.76-1.4.28.28 0 0 0 0-.09c.02-.88-.48-1.24-1.36-1.57zm5.79-4.19l-2.74 7.13h1l.69-1.94h2.87l.68 1.94h1.09L75.33 116zm1.58 4.5h-2.38l.07-.19c.38-1.06.67-2 .89-2.68l.25-.8.13.46c.19.66.54 1.8 1 3zm4.51 2.02c-.4 0-.45-.3-.45-.57v-4h-1v4.12a1 1 0 0 0 .9 1.09h.15a2 2 0 0 0 .55-.07h.08l-.09-.56zm-.96-5.77a.58.58 0 0 0 .62-.54v-.09a.56.56 0 0 0-.48-.61h-.11a.59.59 0 0 0-.62.56v.09a.56.56 0 0 0 .53.59zm5.02 1.12a1.45 1.45 0 0 0-1.44 1.13l-.17.49-.1-.51a2.36 2.36 0 0 0-.3-.8l-.14-.19-.73.29a2.87 2.87 0 0 1 .18.4 5.41 5.41 0 0 1 .28 1.87v2.62h1v-2.88a1.4 1.4 0 0 1 1.24-1.43 1.31 1.31 0 0 1 .44.07l.27-.94h-.07a1.83 1.83 0 0 0-.46-.12zm3.74-.05c-1.54 0-2.5 1.09-2.5 2.85s.75 2.53 2.22 2.53a4.16 4.16 0 0 0 1.4-.24 4.78 4.78 0 0 0 .48-.19l-.22-.53-.42.15a3.81 3.81 0 0 1-1.06.19 1.34 1.34 0 0 1-1.35-1.31v-.2h.16c1.73 0 3-.8 3-1.83s-.62-1.42-1.71-1.42zM87 120.55h-.15v-.15c.06-1.65.78-2 1.38-2a.78.78 0 0 1 .81.75v.08c.04.61-.6 1.28-2.04 1.32zm6.25-.36c-.83-.32-1-.77-1-1.1a.69.69 0 0 1 .76-.63 3.08 3.08 0 0 1 .9.19l.31.12.27-.6-.39-.17a3.16 3.16 0 0 0-1.14-.21 1.58 1.58 0 0 0-1.71 1.39c0 .79.4 1.23 1.48 1.64.74.29.89.72.89 1s-.09.7-.89.7a2.67 2.67 0 0 1-1-.28l-.38-.19-.29.66a3.85 3.85 0 0 0 .47.19 4 4 0 0 0 1.29.25 1.59 1.59 0 0 0 1.76-1.4.28.28 0 0 0 0-.09c.04-.78-.46-1.14-1.33-1.47z"/></svg>