<!DOCTYPE svg>
<!-- Generator: Adobe Illustrator 19.0.0, SVG Export Plug-In . SVG Version: 6.00 Build 0) -->
<svg
  version="1.1"
  id="Layer_1"
  xmlns="http://www.w3.org/2000/svg"
  xmlns:xlink="http://www.w3.org/1999/xlink"
  x="0px"
  y="0px"
  viewBox="0 0 512 512"
  style="enable-background:new 0 0 512 512;"
  xml:space="preserve"
>
  <polygon
    style="fill:#367596;"
    points="503.83,32.681 503.83,98.043 449.362,119.83 471.149,32.681 "
  />
  <polygon
    style="fill:#5195af;"
    points="471.149,32.681 471.149,119.83 305.021,119.83 326.809,32.681 "
  />
  <polygon
    style="fill:#27467a;"
    points="8.17,32.681 8.17,98.043 40.851,119.83 326.809,119.83 326.809,32.681 "
  />
  <polygon
    style="fill:#a0f6fa;"
    points="503.83,98.043 503.83,479.319 471.149,479.319 427.574,288.681 471.149,98.043 "
  />
  <rect x="8.17" y="98.043" style="fill:#d0fbfd;" width="462.979" height="381.277" />
  <g>
    <rect x="97.171" y="292.548" style="fill:#367596;" width="43.574" height="43.574" />
    <rect x="97.171" y="368.803" style="fill:#367596;" width="43.574" height="43.574" />
  </g>
  <path
    d="M503.83,24.511H8.17c-4.512,0-8.17,3.657-8.17,8.17v446.638c0,4.513,3.658,8.17,8.17,8.17h495.66
	c4.512,0,8.17-3.657,8.17-8.17V392.17c0-4.513-3.658-8.17-8.17-8.17s-8.17,3.657-8.17,8.17v78.979H16.34V106.213H495.66v253.277
	c0,4.513,3.658,8.17,8.17,8.17s8.17-3.657,8.17-8.17V32.681C512,28.168,508.342,24.511,503.83,24.511z M16.34,40.851h302.298v49.021
	H16.34V40.851z M334.979,89.872V40.851H495.66v49.021H334.979z"
  />
  <path
    d="M415.591,56.647c-4.805,0-8.715,3.91-8.715,8.715c0,4.805,3.91,8.715,8.715,8.715c4.805,0,8.715-3.91,8.715-8.715
	S420.397,56.647,415.591,56.647z"
  />
  <path
    d="M370.928,56.647c-4.805,0-8.715,3.91-8.715,8.715c0,4.805,3.91,8.715,8.715,8.715s8.715-3.91,8.715-8.715
	S375.733,56.647,370.928,56.647z"
  />
  <path
    d="M460.255,56.647c-4.805,0-8.715,3.91-8.715,8.715c0,4.805,3.91,8.715,8.715,8.715c4.805,0,8.715-3.91,8.715-8.715
	S465.06,56.647,460.255,56.647z"
  />
  <path
    d="M162.003,246.184c3.213-0.402,5.885-2.661,6.813-5.763l18.795-62.741c1.294-4.323-1.159-8.876-5.482-10.171
	c-4.32-1.294-8.876,1.159-10.171,5.482l-13.48,44.997l-12.994-21.687c-1.476-2.464-4.136-3.971-7.009-3.971
	c-2.872,0-5.533,1.508-7.009,3.971l-12.994,21.687l-13.478-44.988c-1.294-4.323-5.849-6.777-10.171-5.482
	c-4.323,1.294-6.777,5.849-5.482,10.171l18.793,62.732c0.929,3.101,3.601,5.361,6.813,5.763c0.34,0.042,0.679,0.063,1.015,0.063
	c2.845,0,5.519-1.488,7.007-3.972l15.505-25.879l15.505,25.879C155.646,245.052,158.794,246.588,162.003,246.184z"
  />
  <path
    d="M224.798,246.176c0.34,0.042,0.679,0.063,1.015,0.063c2.845,0,5.519-1.488,7.007-3.971l15.505-25.879l15.505,25.879
	c1.663,2.777,4.811,4.311,8.022,3.909c3.213-0.402,5.885-2.661,6.813-5.763l18.795-62.741c1.294-4.323-1.16-8.876-5.482-10.171
	c-4.323-1.295-8.876,1.158-10.171,5.482l-13.48,44.997l-12.994-21.687c-1.476-2.464-4.136-3.972-7.009-3.972
	c-2.872,0-5.533,1.508-7.009,3.972l-12.992,21.687l-13.478-44.99c-1.294-4.323-5.847-6.778-10.171-5.482
	c-4.323,1.294-6.777,5.849-5.482,10.171l18.793,62.733C218.914,243.515,221.587,245.774,224.798,246.176z"
  />
  <path
    d="M401.827,167.495c-4.322-1.294-8.876,1.159-10.171,5.482l-13.48,44.996l-12.994-21.687
	c-1.476-2.464-4.136-3.971-7.009-3.971c-2.872,0-5.533,1.508-7.009,3.971l-12.994,21.687l-13.478-44.988
	c-1.295-4.321-5.847-6.776-10.171-5.482c-4.323,1.294-6.777,5.849-5.482,10.171l18.793,62.732c0.929,3.101,3.601,5.361,6.813,5.763
	c3.213,0.402,6.358-1.131,8.022-3.909l15.505-25.879l15.505,25.879c1.488,2.483,4.16,3.971,7.007,3.971
	c0.337,0,0.677-0.02,1.015-0.063c3.213-0.402,5.885-2.661,6.813-5.763l18.795-62.74
	C408.603,173.344,406.149,168.789,401.827,167.495z"
  />
  <path
    d="M148.916,292.545c0-4.513-3.658-8.17-8.17-8.17H97.171c-4.512,0-8.17,3.657-8.17,8.17v43.574c0,4.513,3.658,8.17,8.17,8.17
	h43.574c4.512,0,8.17-3.657,8.17-8.17V292.545z M132.575,327.949h-27.234v-27.234h27.234V327.949z"
  />
  <path
    d="M140.746,360.63H97.171c-4.512,0-8.17,3.657-8.17,8.17v43.574c0,4.513,3.658,8.17,8.17,8.17h43.574
	c4.512,0,8.17-3.657,8.17-8.17V368.8C148.916,364.287,145.258,360.63,140.746,360.63z M132.575,404.204h-27.234V376.97h27.234
	V404.204z"
  />
  <path
    d="M399.482,306.162h-32.681c-4.512,0-8.17,3.657-8.17,8.17c0,4.513,3.658,8.17,8.17,8.17h32.681c4.512,0,8.17-3.657,8.17-8.17
	C407.652,309.819,403.994,306.162,399.482,306.162z"
  />
  <path
    d="M334.12,306.162H173.426c-4.512,0-8.17,3.657-8.17,8.17c0,4.513,3.658,8.17,8.17,8.17h160.695c4.512,0,8.17-3.657,8.17-8.17
	C342.292,309.819,338.632,306.162,334.12,306.162z"
  />
  <path
    d="M399.482,382.417h-32.681c-4.512,0-8.17,3.657-8.17,8.17c0,4.513,3.658,8.17,8.17,8.17h32.681c4.512,0,8.17-3.657,8.17-8.17
	C407.652,386.074,403.994,382.417,399.482,382.417z"
  />
  <path
    d="M334.12,382.417H173.426c-4.512,0-8.17,3.657-8.17,8.17c0,4.513,3.658,8.17,8.17,8.17h160.695c4.512,0,8.17-3.657,8.17-8.17
	C342.292,386.074,338.632,382.417,334.12,382.417z"
  />
  <g></g>
  <g></g>
  <g></g>
  <g></g>
  <g></g>
  <g></g>
  <g></g>
  <g></g>
  <g></g>
  <g></g>
  <g></g>
  <g></g>
  <g></g>
  <g></g>
  <g></g>
</svg>
